<svg width="68" height="68" viewBox="0 0 68 68" fill="none" xmlns="http://www.w3.org/2000/svg">
<g filter="url(#filter0_d_74_2714)">
<circle cx="34" cy="30" r="30" fill="#181515"/>
<path d="M40.6886 33.419C42.7207 34.4011 44.125 36.4788 44.125 38.8875V45.4688C44.125 45.7482 43.8982 45.975 43.6188 45.975H24.3813C24.1018 45.975 23.875 45.7482 23.875 45.4688V38.8875C23.875 36.4788 25.2793 34.4011 27.3114 33.419C27.5291 33.3137 27.7934 33.3917 27.9351 33.5871L32.9875 40.5328V37.1754L32.0428 35.5776C31.8495 35.2506 32.0854 34.8375 32.4651 34.8375H35.536C35.9157 34.8375 36.1516 35.2506 35.9582 35.5776L35.0125 37.1754V40.5328L40.0639 33.5861C40.2066 33.3917 40.4709 33.3137 40.6886 33.419ZM43.1125 26.7375C43.1125 28.3393 42.6903 29.9157 41.8924 31.2948C41.7122 31.6076 41.3781 31.8 41.0166 31.8H38.1624C37.884 32.1088 37.486 32.3063 37.0375 32.3063C36.1992 32.3063 35.5188 31.6259 35.5188 30.7875C35.5188 29.9492 36.1992 29.2688 37.0375 29.2688C37.486 29.2688 37.884 29.4662 38.1624 29.775H40.4051C40.8536 28.8314 41.0875 27.7925 41.0875 26.7375C41.0875 22.8293 37.9083 19.65 34 19.65C30.7641 19.65 27.9422 21.835 27.1363 24.9646C27.0947 25.1236 26.9125 25.8657 26.9125 25.8657C26.9125 25.8657 26.9125 28.1186 26.9125 28.6532C26.9125 29.2131 26.4589 29.6707 25.9 29.6707C24.7458 29.6707 23.875 28.8445 23.875 27.749V25.724C23.875 24.7864 24.5159 23.9946 25.3826 23.7658C26.6371 20.1168 30.0826 17.625 34 17.625C39.024 17.625 43.1125 21.7135 43.1125 26.7375Z" fill="#9CFF4E"/>
<path d="M40.0748 26.7375C40.0748 27.1445 40.0333 27.5525 39.9533 27.9505C39.8429 28.4992 39.3073 28.8556 38.7606 28.7422C38.2118 28.6309 37.8574 28.0963 37.9688 27.5485C38.0225 27.2832 38.0498 27.0098 38.0498 26.7375C38.0498 26.3406 37.9749 25.9649 37.8676 25.6025C36.611 25.3473 35.8405 24.677 35.4244 23.7698C34.7146 24.9373 33.4419 25.725 31.9748 25.725H30.0936C30.0085 26.051 29.9498 26.3861 29.9498 26.7375C29.9498 28.6562 31.3116 30.3258 33.1888 30.7075C33.7366 30.8179 34.0909 31.3535 33.9796 31.9012C33.8692 32.446 33.3366 32.8034 32.7858 32.691C29.969 32.1189 27.9248 29.615 27.9248 26.7375C27.9248 23.3871 30.6494 20.6625 33.9998 20.6625C37.3502 20.6625 40.0748 23.3871 40.0748 26.7375Z" fill="#9CFF4E"/>
</g>
<defs>
<filter id="filter0_d_74_2714" x="0" y="0" width="68" height="68" filterUnits="userSpaceOnUse" color-interpolation-filters="sRGB">
<feFlood flood-opacity="0" result="BackgroundImageFix"/>
<feColorMatrix in="SourceAlpha" type="matrix" values="0 0 0 0 0 0 0 0 0 0 0 0 0 0 0 0 0 0 127 0" result="hardAlpha"/>
<feOffset dy="4"/>
<feGaussianBlur stdDeviation="2"/>
<feComposite in2="hardAlpha" operator="out"/>
<feColorMatrix type="matrix" values="0 0 0 0 0 0 0 0 0 0 0 0 0 0 0 0 0 0 0.25 0"/>
<feBlend mode="normal" in2="BackgroundImageFix" result="effect1_dropShadow_74_2714"/>
<feBlend mode="normal" in="SourceGraphic" in2="effect1_dropShadow_74_2714" result="shape"/>
</filter>
</defs>
</svg>
