<svg width="39" height="39" viewBox="0 0 39 39" fill="none" xmlns="http://www.w3.org/2000/svg">
<rect y="0.775391" width="38.1372" height="37.4483" rx="10" fill="#070708"/>
<path d="M28.1367 14.4294V24.5454C28.1362 24.9834 27.962 25.4033 27.6523 25.7131C27.3426 26.0228 26.9227 26.197 26.4847 26.1974H11.6521C11.3867 26.1978 11.1251 26.1338 10.8899 26.0109C10.8004 25.9644 10.7154 25.9096 10.6361 25.8472C10.438 25.6929 10.2777 25.4955 10.1675 25.2699C10.0572 25.0443 9.99996 24.7965 10 24.5454V14.4294C10.0005 14.0178 10.1545 13.6211 10.4318 13.3169C10.7091 13.0128 11.0899 12.8229 11.4997 12.7845C11.5499 12.7798 11.6008 12.7773 11.6521 12.7773H26.4847C26.6712 12.7771 26.8565 12.8086 27.0325 12.8706C27.1282 12.9042 27.2204 12.9467 27.308 12.9977C27.5597 13.1425 27.7689 13.3511 27.9143 13.6024C28.0598 13.8538 28.1365 14.139 28.1367 14.4294Z" fill="#9CFF4E"/>
<path opacity="0.1" d="M11.851 12.7782L10 15.9862V15.3811L11.4997 12.7825C11.5499 12.7779 11.6008 12.7754 11.6521 12.7754L11.851 12.7782Z" fill="white"/>
<path opacity="0.1" d="M14.0784 12.7773L10 19.8412V19.2375L13.7299 12.7773H14.0784Z" fill="white"/>
<path opacity="0.1" d="M16.3046 12.7773L10 23.6968V23.093L15.9561 12.7773H16.3046Z" fill="white"/>
<path opacity="0.1" d="M18.5311 12.7773L10.8905 26.0109C10.801 25.9644 10.716 25.9096 10.6367 25.8472L18.1826 12.7773H18.5311Z" fill="white"/>
<path opacity="0.1" d="M20.7571 12.7773L13.0087 26.1974H12.6602L20.4086 12.7773H20.7571Z" fill="white"/>
<path opacity="0.1" d="M22.9836 12.7773L15.2352 26.1974H14.8867L22.6351 12.7773H22.9836Z" fill="white"/>
<path opacity="0.1" d="M25.2098 12.7773L17.4618 26.1974H17.1133L24.8613 12.7773H25.2098Z" fill="white"/>
<path opacity="0.1" d="M27.3093 12.9982L19.6883 26.1979H19.3398L27.0338 12.8711C27.1295 12.9046 27.2217 12.9472 27.3093 12.9982Z" fill="white"/>
<path opacity="0.1" d="M28.1383 14.8145V15.4185L21.9149 26.198H21.5664L28.1383 14.8145Z" fill="white"/>
<path opacity="0.1" d="M28.1351 18.6699V19.274L24.1379 26.1976H23.7891L28.1351 18.6699Z" fill="white"/>
<path opacity="0.1" d="M28.1354 22.5273V23.1314L26.3641 26.1992H26.0156L28.1354 22.5273Z" fill="white"/>
<path d="M19.3837 18.8905C19.0249 19.017 18.6477 19.0831 18.2673 19.0859C17.6811 19.0859 17.2386 18.9368 16.9093 18.6232C16.6007 18.3299 16.4206 17.8721 16.4259 17.3474C16.4259 16.2517 17.209 15.5469 18.3549 15.5469C18.7821 15.5469 19.1163 15.6344 19.2758 15.7113L19.137 16.2207C18.9465 16.1385 18.7137 16.0702 18.3499 16.0702C17.6091 16.0702 17.0898 16.5073 17.0898 17.3161C17.0898 18.1031 17.5732 18.5712 18.2933 18.5712C18.5197 18.5712 18.6895 18.5402 18.7717 18.5V17.6364H18.1595V17.1381H19.3837V18.8905ZM20.6644 15.5828V19.0496H20.0308V15.5828H20.6644ZM21.3896 15.5828H23.3905V16.1022H22.0225V17.059H23.2983V17.5784H22.0225V19.0496H21.3896V15.5828ZM24.6713 16.1129H23.6838V15.5828H26.302V16.1129H25.3052V19.05H24.6713V16.1129Z" fill="white"/>
</svg>
