<svg width="37" height="37" viewBox="0 0 37 37" fill="none" xmlns="http://www.w3.org/2000/svg">
<rect width="37" height="37" rx="10" fill="#070708"/>
<path d="M23.0198 11.8459V10.6777H21.7073V11.8459H15.2564V10.6777H13.9439V11.8459H9.85547V26.979H27.0295V11.8459H23.0198ZM25.717 25.6665H11.168V17.5093H25.717V25.6665ZM11.168 16.1968V13.1584H13.9439V14.3265H15.2564V13.1584H21.7073V14.3265H23.0198V13.1584H25.717V16.1968H11.168Z" fill="#9CFF4E"/>
<path d="M18.065 18.4473H16.7656V19.7598H18.065V18.4473Z" fill="#9CFF4E"/>
<path d="M15.8502 20.9277H14.5508V22.2402H15.8502V20.9277Z" fill="#9CFF4E"/>
<path d="M18.065 20.9277H16.7656V22.2402H18.065V20.9277Z" fill="#9CFF4E"/>
<path d="M13.6236 20.9277H12.3242V22.2402H13.6236V20.9277Z" fill="#9CFF4E"/>
<path d="M15.8502 23.416H14.5508V24.7285H15.8502V23.416Z" fill="#9CFF4E"/>
<path d="M18.065 23.416H16.7656V24.7285H18.065V23.416Z" fill="#9CFF4E"/>
<path d="M13.6236 23.416H12.3242V24.7285H13.6236V23.416Z" fill="#9CFF4E"/>
<path d="M22.5298 18.4473H21.2305V19.7598H22.5298V18.4473Z" fill="#9CFF4E"/>
<path d="M24.7486 18.4473H23.4492V19.7598H24.7486V18.4473Z" fill="#9CFF4E"/>
<path d="M20.2967 18.4473H19.0039V19.7598H20.2967V18.4473Z" fill="#9CFF4E"/>
<path d="M22.5298 20.9277H21.2305V22.2402H22.5298V20.9277Z" fill="#9CFF4E"/>
<path d="M24.7486 20.9277H23.4492V22.2402H24.7486V20.9277Z" fill="#9CFF4E"/>
<path d="M20.2967 20.9277H19.0039V22.2402H20.2967V20.9277Z" fill="#9CFF4E"/>
<path d="M20.2967 23.416H19.0039V24.7285H20.2967V23.416Z" fill="#9CFF4E"/>
</svg>
