<svg width="37" height="35" viewBox="0 0 37 35" fill="none" xmlns="http://www.w3.org/2000/svg">
<rect width="37" height="35" rx="10" fill="#070708"/>
<path d="M14.25 19.6667H16.8C17.0254 19.6667 17.2416 19.5754 17.401 19.4128C17.5604 19.2503 17.65 19.0299 17.65 18.8C17.65 18.5701 17.5604 18.3497 17.401 18.1872C17.2416 18.0246 17.0254 17.9333 16.8 17.9333H14.25C14.0246 17.9333 13.8084 18.0246 13.649 18.1872C13.4896 18.3497 13.4 18.5701 13.4 18.8C13.4 19.0299 13.4896 19.2503 13.649 19.4128C13.8084 19.5754 14.0246 19.6667 14.25 19.6667ZM24.45 11H12.55C11.8737 11 11.2251 11.2739 10.7469 11.7615C10.2687 12.2491 10 12.9104 10 13.6V21.4C10 22.0896 10.2687 22.7509 10.7469 23.2385C11.2251 23.7261 11.8737 24 12.55 24H24.45C25.1263 24 25.7749 23.7261 26.2531 23.2385C26.7313 22.7509 27 22.0896 27 21.4V13.6C27 12.9104 26.7313 12.2491 26.2531 11.7615C25.7749 11.2739 25.1263 11 24.45 11ZM25.3 21.4C25.3 21.6299 25.2104 21.8503 25.051 22.0128C24.8916 22.1754 24.6754 22.2667 24.45 22.2667H12.55C12.3246 22.2667 12.1084 22.1754 11.949 22.0128C11.7896 21.8503 11.7 21.6299 11.7 21.4V16.2H25.3V21.4ZM25.3 14.4667H11.7V13.6C11.7 13.3701 11.7896 13.1497 11.949 12.9872C12.1084 12.8246 12.3246 12.7333 12.55 12.7333H24.45C24.6754 12.7333 24.8916 12.8246 25.051 12.9872C25.2104 13.1497 25.3 13.3701 25.3 13.6V14.4667Z" fill="#9CFF4E"/>
</svg>
