<svg width="39" height="40" viewBox="0 0 39 40" fill="none" xmlns="http://www.w3.org/2000/svg">
<rect width="39" height="40" rx="10" fill="#070708"/>
<path d="M18.1 24.6H19.9V26.4H18.1V24.6ZM19 12C14.032 12 10 16.032 10 21C10 25.968 14.032 30 19 30C23.968 30 28 25.968 28 21C28 16.032 23.968 12 19 12ZM19 28.2C15.031 28.2 11.8 24.969 11.8 21C11.8 17.031 15.031 13.8 19 13.8C22.969 13.8 26.2 17.031 26.2 21C26.2 24.969 22.969 28.2 19 28.2ZM19 15.6C17.011 15.6 15.4 17.211 15.4 19.2H17.2C17.2 18.21 18.01 17.4 19 17.4C19.99 17.4 20.8 18.21 20.8 19.2C20.8 21 18.1 20.775 18.1 23.7H19.9C19.9 21.675 22.6 21.45 22.6 19.2C22.6 17.211 20.989 15.6 19 15.6Z" fill="#9CFF4E"/>
</svg>
