<svg width="38" height="37" viewBox="0 0 38 37" fill="none" xmlns="http://www.w3.org/2000/svg">
<rect width="37.129" height="37" rx="10" fill="#070708"/>
<path fill-rule="evenodd" clip-rule="evenodd" d="M18.0968 6.914V8.211L14.6851 10.317L13.5503 8.217C13.9264 7.747 14.004 7.057 13.6991 6.492C13.3118 5.775 12.453 5.529 11.7823 5.943C11.1115 6.357 10.8814 7.275 11.2687 7.992C11.5736 8.557 12.1724 8.829 12.7402 8.717L13.8749 10.817L10.4632 12.923L9.41268 12.274C9.51745 11.667 9.263 11.027 8.73445 10.701C8.06371 10.287 7.20494 10.533 6.81765 11.25C6.43035 11.967 6.66048 12.885 7.33123 13.299C7.85977 13.625 8.50526 13.542 8.94494 13.14L9.99548 13.789V18H7.726C7.53329 17.418 7.0141 17 6.40323 17C5.62865 17 5 17.672 5 18.5C5 19.328 5.62865 20 6.40323 20C7.0141 20 7.53329 19.582 7.726 19H9.99548V23.211L8.94494 23.86C8.50526 23.458 7.85977 23.375 7.33123 23.701C6.66048 24.115 6.43035 25.033 6.81765 25.75C7.20494 26.467 8.06371 26.713 8.73445 26.299C9.263 25.973 9.51745 25.333 9.41268 24.726L10.4632 24.077L13.8749 26.183L12.7402 28.283C12.1724 28.171 11.5736 28.443 11.2687 29.008C10.8814 29.725 11.1115 30.643 11.7823 31.057C12.453 31.471 13.3118 31.225 13.6991 30.508C14.004 29.943 13.9264 29.253 13.5503 28.783L14.6851 26.683L18.0968 28.789V30.086C17.5523 30.292 17.1613 30.847 17.1613 31.5C17.1613 32.328 17.7899 33 18.5645 33C19.3391 33 19.9677 32.328 19.9677 31.5C19.9677 30.847 19.5767 30.292 19.0323 30.086V28.789L22.444 26.683L23.5787 28.783C23.2026 29.253 23.125 29.943 23.43 30.508C23.8173 31.225 24.676 31.471 25.3468 31.057C26.0175 30.643 26.2476 29.725 25.8604 29.008C25.5554 28.443 24.9567 28.171 24.3888 28.283L23.2541 26.183L26.6658 24.077L27.7164 24.726C27.6116 25.333 27.866 25.973 28.3946 26.299C29.0653 26.713 29.9241 26.467 30.3114 25.75C30.6987 25.033 30.4685 24.115 29.7978 23.701C29.2693 23.375 28.6238 23.458 28.1841 23.86L27.1335 23.211V19H29.403C29.5957 19.582 30.1149 20 30.7258 20C31.5004 20 32.129 19.328 32.129 18.5C32.129 17.672 31.5004 17 30.7258 17C30.1149 17 29.5957 17.418 29.403 18H27.1335V13.789L28.1841 13.14C28.6238 13.542 29.2693 13.625 29.7978 13.299C30.4685 12.885 30.6987 11.967 30.3114 11.25C29.9241 10.533 29.0653 10.287 28.3946 10.701C27.866 11.027 27.6116 11.667 27.7164 12.274L26.6658 12.923L23.2541 10.817L24.3888 8.717C24.9567 8.829 25.5554 8.557 25.8604 7.992C26.2476 7.275 26.0175 6.357 25.3468 5.943C24.676 5.529 23.8173 5.775 23.43 6.492C23.125 7.057 23.2026 7.747 23.5787 8.217L22.444 10.317L19.0323 8.211V6.914C19.5767 6.708 19.9677 6.153 19.9677 5.5C19.9677 4.672 19.3391 4 18.5645 4C17.7899 4 17.1613 4.672 17.1613 5.5C17.1613 6.153 17.5523 6.708 18.0968 6.914ZM18.5645 32C18.3063 32 18.0968 31.776 18.0968 31.5C18.0968 31.224 18.3063 31 18.5645 31C18.8227 31 19.0323 31.224 19.0323 31.5C19.0323 31.776 18.8227 32 18.5645 32ZM25.0502 29.508C25.1793 29.747 25.1026 30.053 24.879 30.191C24.6555 30.329 24.3692 30.247 24.2401 30.008C24.111 29.769 24.1877 29.463 24.4113 29.325C24.6349 29.187 24.9211 29.269 25.0502 29.508ZM12.0788 29.508C12.2079 29.269 12.4942 29.187 12.7177 29.325C12.9413 29.463 13.018 29.769 12.8889 30.008C12.7598 30.247 12.4736 30.329 12.25 30.191C12.0264 30.053 11.9497 29.747 12.0788 29.508ZM18.5645 9.077L26.1981 13.789V23.211L18.5645 27.923L10.931 23.211V13.789L18.5645 9.077ZM18.7984 10.067C18.6534 9.978 18.4756 9.978 18.3306 10.067L11.8496 14.067C11.7046 14.156 11.6157 14.321 11.6157 14.5V22.5C11.6157 22.679 11.7046 22.844 11.8496 22.933L18.3306 26.933C18.4756 27.022 18.6534 27.022 18.7984 26.933L25.2794 22.933C25.4244 22.844 25.5133 22.679 25.5133 22.5V14.5C25.5133 14.321 25.4244 14.156 25.2794 14.067L18.7984 10.067ZM29.5013 25.25C29.3722 25.489 29.0859 25.571 28.8623 25.433C28.6387 25.295 28.562 24.989 28.6911 24.75C28.8202 24.511 29.1065 24.429 29.3301 24.567C29.5536 24.705 29.6304 25.011 29.5013 25.25ZM7.62777 25.25C7.49868 25.011 7.57539 24.705 7.79897 24.567C8.02255 24.429 8.30881 24.511 8.4379 24.75C8.567 24.989 8.49029 25.295 8.26671 25.433C8.04313 25.571 7.75687 25.489 7.62777 25.25ZM14.3548 20.5V18.618L15.3399 20.724C15.4363 20.931 15.6542 21.04 15.8656 20.987C16.0771 20.933 16.2258 20.732 16.2258 20.5V16.5C16.2258 16.224 16.0163 16 15.7581 16C15.4999 16 15.2903 16.224 15.2903 16.5V18.382L14.3053 16.276C14.2089 16.069 13.9909 15.96 13.7795 16.013C13.5681 16.067 13.4194 16.268 13.4194 16.5V20.5C13.4194 20.776 13.6289 21 13.8871 21C14.1453 21 14.3548 20.776 14.3548 20.5ZM21.8387 17V20.5C21.8387 20.776 22.0483 21 22.3065 21C22.5646 21 22.7742 20.776 22.7742 20.5V17H23.2419C23.5001 17 23.7097 16.776 23.7097 16.5C23.7097 16.224 23.5001 16 23.2419 16H21.371C21.1128 16 20.9032 16.224 20.9032 16.5C20.9032 16.776 21.1128 17 21.371 17H21.8387ZM18.0968 19H18.5645C18.8227 19 19.0323 18.776 19.0323 18.5C19.0323 18.224 18.8227 18 18.5645 18H18.0968V17H19.5C19.7582 17 19.9677 16.776 19.9677 16.5C19.9677 16.224 19.7582 16 19.5 16H17.629C17.3708 16 17.1613 16.224 17.1613 16.5V20.5C17.1613 20.776 17.3708 21 17.629 21C17.8872 21 18.0968 20.776 18.0968 20.5V19ZM6.40323 18C6.66142 18 6.87097 18.224 6.87097 18.5C6.87097 18.776 6.66142 19 6.40323 19C6.14503 19 5.93548 18.776 5.93548 18.5C5.93548 18.224 6.14503 18 6.40323 18ZM30.7258 18C30.984 18 31.1935 18.224 31.1935 18.5C31.1935 18.776 30.984 19 30.7258 19C30.4676 19 30.2581 18.776 30.2581 18.5C30.2581 18.224 30.4676 18 30.7258 18ZM7.62777 11.75C7.75687 11.511 8.04313 11.429 8.26671 11.567C8.49029 11.705 8.567 12.011 8.4379 12.25C8.30881 12.489 8.02255 12.571 7.79897 12.433C7.57539 12.295 7.49868 11.989 7.62777 11.75ZM29.5013 11.75C29.6304 11.989 29.5536 12.295 29.3301 12.433C29.1065 12.571 28.8202 12.489 28.6911 12.25C28.562 12.011 28.6387 11.705 28.8623 11.567C29.0859 11.429 29.3722 11.511 29.5013 11.75ZM12.8889 6.992C13.018 7.231 12.9413 7.537 12.7177 7.675C12.4942 7.813 12.2079 7.731 12.0788 7.492C11.9497 7.253 12.0264 6.947 12.25 6.809C12.4736 6.671 12.7598 6.753 12.8889 6.992ZM24.2401 6.992C24.3692 6.753 24.6555 6.671 24.879 6.809C25.1026 6.947 25.1793 7.253 25.0502 7.492C24.9211 7.731 24.6349 7.813 24.4113 7.675C24.1877 7.537 24.111 7.231 24.2401 6.992ZM18.5645 5C18.8227 5 19.0323 5.224 19.0323 5.5C19.0323 5.776 18.8227 6 18.5645 6C18.3063 6 18.0968 5.776 18.0968 5.5C18.0968 5.224 18.3063 5 18.5645 5Z" fill="#9CFF4E"/>
</svg>
