<svg width="39" height="40" viewBox="0 0 39 40" fill="none" xmlns="http://www.w3.org/2000/svg">
<rect width="39" height="40" rx="10" fill="#070708"/>
<path d="M13.9583 21.8958C13.8544 21.8958 13.7514 21.9163 13.6553 21.956C13.5593 21.9958 13.472 22.0541 13.3985 22.1277C13.325 22.2012 13.2667 22.2885 13.2269 22.3845C13.1871 22.4806 13.1666 22.5835 13.1667 22.6875V24.0985C12.1463 22.9445 11.5831 21.4571 11.5833 19.9167C11.5832 19.6839 11.5971 19.4512 11.6251 19.2201C11.6379 19.1167 11.6302 19.0119 11.6024 18.9115C11.5746 18.8111 11.5273 18.7172 11.4632 18.6352C11.399 18.5531 11.3193 18.4845 11.2286 18.4333C11.1379 18.3821 11.038 18.3493 10.9346 18.3368C10.8312 18.3243 10.7263 18.3323 10.626 18.3604C10.5258 18.3885 10.432 18.4361 10.3501 18.5005C10.2683 18.5649 10.1999 18.6448 10.149 18.7356C10.098 18.8265 10.0656 18.9265 10.0533 19.0299C10.0175 19.3241 9.99967 19.6203 10 19.9167C10.0011 21.8057 10.68 23.6317 11.9134 25.0625H10.7917C10.5817 25.0625 10.3803 25.1459 10.2319 25.2944C10.0834 25.4429 10 25.6442 10 25.8542C10 26.0641 10.0834 26.2655 10.2319 26.414C10.3803 26.5624 10.5817 26.6458 10.7917 26.6458H13.9583C14.0822 26.6443 14.2038 26.6132 14.3132 26.5551C14.4225 26.497 14.5164 26.4136 14.587 26.3119C14.5963 26.2997 14.608 26.2907 14.6166 26.2779C14.6219 26.27 14.6221 26.2607 14.627 26.2526C14.6647 26.1889 14.693 26.12 14.7109 26.0482C14.7226 26.0078 14.7309 25.9665 14.7358 25.9247C14.7381 25.9003 14.75 25.8792 14.75 25.8542V22.6875C14.7501 22.5836 14.7296 22.4806 14.6898 22.3845C14.6501 22.2885 14.5917 22.2012 14.5182 22.1277C14.4447 22.0541 14.3574 21.9958 14.2613 21.956C14.1653 21.9163 14.0623 21.8958 13.9583 21.8958ZM15.1458 15.1667H13.7347C14.8888 14.1463 16.3762 13.5832 17.9167 13.5833C18.1494 13.5828 18.3819 13.5967 18.6129 13.6251C18.7161 13.6376 18.8208 13.6297 18.921 13.6018C19.0212 13.5739 19.1149 13.5265 19.1968 13.4623C19.2787 13.3982 19.3471 13.3185 19.3982 13.2279C19.4493 13.1373 19.4821 13.0376 19.4946 12.9343C19.5071 12.8311 19.4992 12.7264 19.4713 12.6262C19.4433 12.526 19.396 12.4323 19.3318 12.3504C19.2677 12.2685 19.188 12.2001 19.0974 12.149C19.0068 12.0979 18.9071 12.0651 18.8038 12.0526C18.5094 12.0171 18.2132 11.9995 17.9167 12C16.0276 12.001 14.2017 12.6799 12.7708 13.9132V12.7917C12.7708 12.5817 12.6874 12.3804 12.539 12.2319C12.3905 12.0834 12.1891 12 11.9792 12C11.7692 12 11.5678 12.0834 11.4194 12.2319C11.2709 12.3804 11.1875 12.5817 11.1875 12.7917V15.9583C11.1925 16.0107 11.2029 16.0623 11.2186 16.1125L11.2188 16.1135C11.238 16.2109 11.276 16.3036 11.3306 16.3866L11.3396 16.4C11.3919 16.476 11.4575 16.5421 11.5332 16.595C11.5418 16.6013 11.5461 16.611 11.5551 16.6171C11.5664 16.6245 11.5792 16.6269 11.5908 16.6338C11.6357 16.6608 11.6833 16.6831 11.7327 16.7003C11.7996 16.7235 11.8694 16.7376 11.94 16.7421C11.9538 16.7428 11.9653 16.75 11.9792 16.75H15.1458C15.3558 16.75 15.5572 16.6666 15.7056 16.5182C15.8541 16.3697 15.9375 16.1683 15.9375 15.9584C15.9375 15.7484 15.8541 15.547 15.7056 15.3986C15.5572 15.2501 15.3558 15.1667 15.1458 15.1667V15.1667ZM24.6145 23.7199C24.5953 23.6225 24.5573 23.5297 24.5027 23.4467L24.4938 23.4334C24.4414 23.3573 24.3758 23.2912 24.3001 23.2383C24.2914 23.232 24.2872 23.2223 24.2782 23.2163C24.2697 23.2106 24.2595 23.2104 24.2508 23.2051C24.1504 23.1493 24.0404 23.1129 23.9265 23.0979C23.9014 23.0955 23.8798 23.0833 23.8542 23.0833H20.6875C20.4775 23.0833 20.2762 23.1667 20.1277 23.3152C19.9792 23.4636 19.8958 23.665 19.8958 23.875C19.8958 24.0849 19.9792 24.2863 20.1277 24.4348C20.2762 24.5832 20.4775 24.6666 20.6875 24.6666H22.0986C20.9445 25.687 19.4571 26.2502 17.9167 26.25C17.6839 26.2503 17.4514 26.2361 17.2205 26.2075C17.012 26.1821 16.8019 26.2407 16.6365 26.3702C16.4712 26.4998 16.3641 26.6897 16.3387 26.8982C16.3134 27.1068 16.372 27.3168 16.5015 27.4822C16.6311 27.6475 16.821 27.7546 17.0295 27.78C17.3239 27.8155 17.6202 27.8333 17.9167 27.8333C19.8057 27.8323 21.6316 27.1534 23.0625 25.9201V27.0417C23.0625 27.2516 23.1459 27.453 23.2944 27.6015C23.4428 27.7499 23.6442 27.8333 23.8542 27.8333C24.0641 27.8333 24.2655 27.7499 24.414 27.6015C24.5624 27.453 24.6458 27.2516 24.6458 27.0417V23.875C24.6409 23.8227 24.6304 23.771 24.6147 23.7209L24.6145 23.7199ZM25.0417 14.7708C25.2516 14.7708 25.453 14.6874 25.6015 14.539C25.7499 14.3905 25.8333 14.1891 25.8333 13.9792C25.8333 13.7692 25.7499 13.5679 25.6015 13.4194C25.453 13.2709 25.2516 13.1875 25.0417 13.1875H21.875C21.8235 13.1925 21.7726 13.2027 21.7231 13.2181L21.7179 13.2192C21.6217 13.2384 21.5302 13.2759 21.4481 13.3297L21.4326 13.3402C21.3569 13.3924 21.2911 13.4577 21.2384 13.5331C21.2322 13.5417 21.2226 13.5459 21.2167 13.5547C21.2111 13.5632 21.2109 13.5733 21.2055 13.5819C21.149 13.683 21.1124 13.7938 21.0976 13.9086C21.0953 13.9331 21.0833 13.9542 21.0833 13.9792V17.1458C21.0833 17.3558 21.1667 17.5572 21.3152 17.7056C21.4637 17.8541 21.665 17.9375 21.875 17.9375C22.085 17.9375 22.2863 17.8541 22.4348 17.7056C22.5833 17.5572 22.6667 17.3558 22.6667 17.1458V15.7344C23.687 16.8886 24.2501 18.3761 24.25 19.9166C24.2502 20.1495 24.2362 20.3821 24.2083 20.6132C24.1832 20.8216 24.2418 21.0314 24.3712 21.1967C24.5006 21.3619 24.6903 21.469 24.8987 21.4946C24.9307 21.4983 24.963 21.5001 24.9953 21.5C25.1886 21.4997 25.3751 21.4287 25.5197 21.3004C25.6642 21.1721 25.7568 20.9953 25.78 20.8034C25.8159 20.5092 25.8337 20.2131 25.8333 19.9167C25.8323 18.0276 25.1533 16.2017 23.9199 14.7708H25.0417Z" fill="#9CFF4E"/>
</svg>
