<svg width="35" height="38" viewBox="0 0 35 38" fill="none" xmlns="http://www.w3.org/2000/svg">
<rect y="0.560547" width="35" height="36.8779" rx="10" fill="#070708"/>
<path d="M24.9933 21.822V11.5012C24.9927 11.3603 24.9603 11.2213 24.8986 11.0946C24.8368 10.9679 24.7474 10.8567 24.6368 10.7693C24.5278 10.6812 24.4004 10.6185 24.264 10.5861C24.1276 10.5536 23.9857 10.5521 23.8486 10.5817L15.4043 12.4582C15.1958 12.5052 15.0097 12.622 14.8766 12.7892C14.7435 12.9564 14.6715 13.164 14.6725 13.3777V21.2028C14.0319 20.9004 13.3106 20.8139 12.6168 20.9561C11.9229 21.0984 11.2939 21.4619 10.824 21.9919C10.3542 22.522 10.0689 23.1901 10.011 23.896C9.95303 24.602 10.1255 25.3077 10.5026 25.9073C10.8797 26.5068 11.4411 26.968 12.1025 27.2215C12.7639 27.475 13.4896 27.5073 14.1709 27.3134C14.8521 27.1195 15.4521 26.7099 15.8809 26.1462C16.3097 25.5824 16.5441 24.8948 16.549 24.1865C16.5587 24.024 16.5587 23.8611 16.549 23.6986V14.1283L23.1168 12.674V19.3263C22.4759 19.0237 21.7542 18.9372 21.06 19.0798C20.3657 19.2224 19.7365 19.5864 19.2668 20.1171C18.7971 20.6478 18.5122 21.3166 18.455 22.023C18.3978 22.7294 18.5712 23.4353 18.9494 24.0346C19.3276 24.634 19.89 25.0946 20.5522 25.347C21.2144 25.5995 21.9407 25.6304 22.6219 25.4349C23.3031 25.2395 23.9026 24.8283 24.3302 24.2631C24.7578 23.6979 24.9905 23.0093 24.9933 22.3006C25.0022 22.1412 25.0022 21.9814 24.9933 21.822Z" fill="#9CFF4E"/>
</svg>
