<svg width="38" height="39" viewBox="0 0 38 39" fill="none" xmlns="http://www.w3.org/2000/svg">
<rect y="0.5" width="38" height="38" rx="10" fill="#070708"/>
<path d="M25.8757 19.7024C26.5685 19.1553 27.0929 18.4412 27.4135 17.6446C27.6344 18.294 27.75 19.0219 27.75 19.8346C27.75 21.775 27.065 23.1343 26.3625 24.0099C26.0139 24.4445 25.664 24.7566 25.3975 24.9624C25.345 25.0029 25.2956 25.0393 25.25 25.0719V26.3758C25.25 27.4113 24.4105 28.2508 23.375 28.2508H22.75C22.0596 28.2508 21.5 27.691 21.5 27.0008H19C19 27.691 18.4404 28.2508 17.75 28.2508H17.125C16.0895 28.2508 15.25 27.4113 15.25 26.3758V26.1091C15.1421 26.0748 15.0212 26.0323 14.8908 25.9795C14.3908 25.7778 13.7394 25.4239 13.1384 24.8146C12.3983 24.0644 11.9837 23.1255 11.7759 22.5364C11.7079 22.3435 11.5716 22.2221 11.439 22.1846C10.7356 21.9858 10.25 21.3439 10.25 20.613V19.6205C10.25 18.9006 10.7271 18.268 11.4193 18.0701C11.5485 18.0331 11.6886 17.9069 11.7576 17.6984C11.9259 17.1894 12.2506 16.4372 12.8456 15.8341C13.3323 15.3407 13.8577 14.976 14.2564 14.7359C14.3773 14.6631 14.4876 14.6011 14.5833 14.5497V12.2028C14.5833 11.7609 14.873 11.449 15.1843 11.3227C15.4931 11.1974 15.907 11.2183 16.2166 11.5108C16.5326 11.8093 16.9479 12.1663 17.3922 12.4571C17.8478 12.7553 18.2752 12.9446 18.6238 12.98L18.6305 12.9806C17.9705 13.9604 17.6665 15.16 17.8079 16.3614C17.9591 17.6466 18.9538 18.4195 19.7888 18.7654L22.7751 20.002C23.6102 20.3478 24.8601 20.5045 25.8757 19.7024ZM14.9375 18.8751C15.4553 18.8751 15.875 18.4554 15.875 17.9376C15.875 17.4199 15.4553 17.0001 14.9375 17.0001C14.4197 17.0001 14 17.4199 14 17.9376C14 18.4554 14.4197 18.8751 14.9375 18.8751Z" fill="#9CFF4E"/>
<path d="M19.2875 14.3986C19.648 13.4878 20.3627 12.7184 21.3391 12.3139C23.2524 11.5212 25.4461 12.4296 26.2389 14.343C26.8959 15.9287 26.3844 17.7071 25.1006 18.7208C24.5803 19.1318 23.8656 19.1002 23.253 18.8465L20.2667 17.6099C19.6541 17.3562 19.1264 16.8732 19.0489 16.2147C19.0111 15.8931 19.0158 15.5716 19.0601 15.2578L19.2875 14.3986ZM19.2875 14.3986L19.1174 14.947C19.1438 14.8315 19.1756 14.7175 19.2126 14.6052C19.2355 14.5356 19.2605 14.4667 19.2875 14.3986Z" fill="#9CFF4E"/>
</svg>
