<svg width="41" height="41" viewBox="0 0 41 41" fill="none" xmlns="http://www.w3.org/2000/svg">
<path d="M20.3125 0C9.0918 0 0 9.0918 0 20.3125C0 31.5332 9.0918 40.625 20.3125 40.625C31.5332 40.625 40.625 31.5332 40.625 20.3125C40.625 9.0918 31.5332 0 20.3125 0ZM20.3125 38.9355C14.5898 38.9355 9.46289 36.3379 6.04492 32.2656C7.7832 31.5137 12.1191 29.9512 14.8633 29.1504C15.0781 29.082 15.1172 29.0723 15.1172 28.1055C15.1172 27.0703 15 26.3379 14.7461 25.8008C14.4043 25.0684 13.9941 23.8281 13.8477 22.7148C13.4375 22.2363 12.8809 21.2988 12.5195 19.502C12.207 17.9199 12.3535 17.3438 12.5586 16.8066C12.5781 16.748 12.6074 16.6895 12.6172 16.6309C12.6953 16.2695 12.5879 14.3359 12.3145 12.8418C12.1289 11.8164 12.3633 9.63867 13.7793 7.83203C14.668 6.68945 16.377 5.29297 19.4434 5.09766H21.1523C24.2676 5.29297 25.9766 6.68945 26.8652 7.83203C28.2813 9.63867 28.5156 11.8164 28.3203 12.8418C28.0469 14.3359 27.9395 16.2598 28.0176 16.6309C28.0273 16.6895 28.0566 16.748 28.0762 16.7969C28.2812 17.334 28.4375 17.9102 28.1152 19.4922C27.7539 21.2891 27.1973 22.2266 26.7871 22.7051C26.6406 23.8184 26.2305 25.0488 25.8887 25.791C25.5664 26.4648 25.2441 27.2656 25.2441 28.0664C25.2441 29.0332 25.2832 29.043 25.5078 29.1113C28.1152 29.8828 32.6074 31.4355 34.5898 32.2461C31.1719 36.3281 26.0449 38.9355 20.3125 38.9355V38.9355Z" fill="#FFFDFD"/>
</svg>
