<svg width="25" height="23" viewBox="0 0 25 23" fill="none" xmlns="http://www.w3.org/2000/svg">
<path d="M24.8703 0.159815C24.7796 0.0637953 24.6532 0.0065171 24.519 0.000522536C24.3847 -0.00547203 24.2535 0.0403053 24.154 0.127831L18.7361 4.93767C18.0842 4.46714 17.2794 4.23932 16.4685 4.29578C15.6576 4.35224 14.8947 4.68921 14.319 5.24521L12.2869 7.21343C12.1923 7.30562 12.1392 7.43033 12.1392 7.56033C12.1392 7.69032 12.1923 7.81503 12.2869 7.90723L13.496 9.07832L11.1566 11.2483C11.1084 11.293 11.0698 11.3465 11.0429 11.4057C11.0161 11.465 11.0015 11.5287 11.0001 11.5934C10.9987 11.658 11.0104 11.7223 11.0347 11.7826C11.0589 11.8428 11.0952 11.8979 11.1414 11.9445C11.1876 11.9912 11.2428 12.0286 11.3039 12.0547C11.3651 12.0807 11.4309 12.0948 11.4976 12.0961C11.5644 12.0975 11.6308 12.0861 11.693 12.0626C11.7552 12.0392 11.812 12.0041 11.8602 11.9593L14.2148 9.77458L14.4333 9.98616L12.0888 12.1512C12.0151 12.219 11.9641 12.3067 11.9424 12.4028C11.9207 12.499 11.9293 12.5993 11.967 12.6907C12.0048 12.7821 12.07 12.8604 12.1542 12.9156C12.2384 12.9707 12.3377 13.0001 12.4393 13C12.571 13.0001 12.6976 12.9507 12.7924 12.8622L15.147 10.6775L16.3535 11.8486C16.4007 11.8943 16.4567 11.9306 16.5184 11.9554C16.5801 11.9802 16.6462 11.9929 16.713 11.9929C16.7797 11.9929 16.8458 11.9802 16.9075 11.9554C16.9692 11.9306 17.0252 11.8943 17.0724 11.8486L19.1044 9.88037C19.6746 9.32817 20.0223 8.59674 20.0847 7.81807C20.1472 7.0394 19.9202 6.26476 19.4448 5.63393L24.8322 0.853613C24.9321 0.766393 24.9921 0.64439 24.9993 0.51434C25.0064 0.38429 24.96 0.256802 24.8703 0.159815ZM18.3907 9.19887L16.7041 10.8128L13.3588 7.56525L15.0353 5.94147C15.4812 5.51049 16.0857 5.26875 16.7157 5.26944C17.3456 5.27014 17.9495 5.5132 18.3945 5.94516C18.8394 6.37712 19.089 6.96259 19.0883 7.57278C19.0876 8.18297 18.8366 8.76789 18.3907 9.19887Z" fill="#231E1E"/>
<path d="M11.8498 15.9331L11.2516 15.3768C11.154 15.3061 11.0321 15.2709 10.9086 15.2776C10.7851 15.2844 10.6685 15.3328 10.5806 15.4137C10.4926 15.4946 10.4394 15.6025 10.4308 15.7173C10.4222 15.832 10.4588 15.9457 10.5338 16.0372L10.7705 16.2573L9.08284 17.8314C8.6305 18.2144 8.03679 18.4205 7.42518 18.4069C6.81358 18.3933 6.23117 18.1609 5.79907 17.7582C5.36697 17.3555 5.11845 16.8134 5.10519 16.2447C5.09193 15.676 5.31495 15.1244 5.72787 14.7046L7.4079 13.1424L7.61409 13.3318C7.66048 13.3792 7.71676 13.4174 7.77951 13.444C7.84226 13.4706 7.91017 13.4851 7.97911 13.4866C8.04806 13.488 8.11661 13.4765 8.1806 13.4525C8.24458 13.4286 8.30268 13.3929 8.35136 13.3474C8.40004 13.302 8.43828 13.2479 8.46378 13.1883C8.48927 13.1287 8.50148 13.0649 8.49966 13.0008C8.49784 12.9367 8.48203 12.8736 8.4532 12.8154C8.42436 12.7571 8.3831 12.7049 8.33191 12.6619L7.76936 12.1388C7.72208 12.0948 7.66593 12.0599 7.60413 12.0361C7.54232 12.0123 7.47608 12 7.40917 12C7.34227 12 7.27602 12.0123 7.21422 12.0361C7.15241 12.0599 7.09627 12.0948 7.04899 12.1388L5.01259 14.0324C4.44151 14.5661 4.09412 15.2719 4.03298 16.0226C3.97185 16.7733 4.20099 17.5197 4.67913 18.1272L0.155788 22.1913C0.107609 22.2345 0.0690585 22.2861 0.0423406 22.3431C0.0156226 22.4002 0.00126154 22.4616 7.94453e-05 22.5238C-0.00110265 22.586 0.0109171 22.6478 0.0354511 22.7057C0.0599852 22.7636 0.0965521 22.8164 0.143061 22.8612C0.190342 22.9052 0.24649 22.9401 0.308294 22.9639C0.370097 22.9877 0.436345 23 0.503248 23C0.570152 23 0.636399 22.9877 0.698203 22.9639C0.760006 22.9401 0.816154 22.9052 0.863435 22.8612L5.39187 18.8018C6.04484 19.252 6.84999 19.469 7.66063 19.4134C8.47127 19.3578 9.23344 19.0332 9.8083 18.4989L11.8447 16.6053C11.9416 16.5183 11.9974 16.3991 12 16.2739C12.0007 16.2107 11.9878 16.1479 11.962 16.0894C11.9362 16.0308 11.898 15.9777 11.8498 15.9331Z" fill="#231E1E"/>
</svg>
